<?xml version="1.0" standalone="no"?>
<!DOCTYPE svg PUBLIC "-//W3C//DTD SVG 1.1//EN" "http://www.w3.org/Graphics/SVG/1.1/DTD/svg11.dtd">
<!--Generator: Xara Xtreme (www.xara.com), SVG filter version: 1.0.0.13-->
<svg stroke-width="0.501" stroke-linejoin="bevel" fill-rule="evenodd" xmlns:xlink="http://www.w3.org/1999/xlink" xmlns="http://www.w3.org/2000/svg" version="1.1" overflow="visible" width="388.537pt" height="520.29pt" viewBox="0 0 388.537 520.29">
 <defs>
  <marker id="DefaultArrow2" markerUnits="strokeWidth" viewBox="0 0 1 1" markerWidth="1" markerHeight="1" overflow="visible" orient="auto">
   <!-- REF_ARROW_STRAIGHT (-2) -->
   <g transform="scale(0.0092592592)">
    <!-- 1/108 -->
    <path d="M -9 54 L -9 -54 L 117 0 z"/>
   </g>
  </marker>
  <marker id="DefaultArrow3" markerUnits="strokeWidth" viewBox="0 0 1 1" markerWidth="1" markerHeight="1" overflow="visible" orient="auto">
   <!-- REF_ARROW_ANGLED -->
   <g transform="scale(0.0092592592)">
    <path d="M -27 54 L -9 0 L -27 -54 L 135 0 z"/>
   </g>
  </marker>
  <marker id="DefaultArrow4" markerUnits="strokeWidth" viewBox="0 0 1 1" markerWidth="1" markerHeight="1" overflow="visible" orient="auto">
   <!-- REF_ARROW_ROUNDED -->
   <g transform="scale(0.0092592592)">
    <path d="M -9,0 L -9,-45 C -9,-51.708 2.808,-56.580 9,-54 L 117,-9 C 120.916,-7.369 126.000,-4.242 126,0 C 126,4.242 120.916,7.369 117,9 L 9,54 C 2.808,56.580 -9,51.708 -9,45 z"/>
   </g>
  </marker>
  <marker id="DefaultArrow5" markerUnits="strokeWidth" viewBox="0 0 1 1" markerWidth="1" markerHeight="1" overflow="visible" orient="auto">
   <!-- REF_ARROW_SPOT -->
   <g transform="scale(0.0092592592)">
    <path d="M -54, 0 C -54,29.807 -29.807,54 0,54 C 29.807,54 54,29.807 54,0 C 54,-29.807 29.807,-54 0,-54 C -29.807,-54 -54,-29.807 -54,0 z"/>
   </g>
  </marker>
  <marker id="DefaultArrow6" markerUnits="strokeWidth" viewBox="0 0 1 1" markerWidth="1" markerHeight="1" overflow="visible" orient="auto">
   <!-- REF_ARROW_DIAMOND -->
   <g transform="scale(0.0092592592)">
    <path d="M -63,0 L 0,63 L 63,0 L 0,-63 z"/>
   </g>
  </marker>
  <marker id="DefaultArrow7" markerUnits="strokeWidth" viewBox="0 0 1 1" markerWidth="1" markerHeight="1" overflow="visible" orient="auto">
   <!-- REF_ARROW_FEATHER -->
   <g transform="scale(0.0092592592)">
    <path d="M 18,-54 L 108,-54 L 63,0 L 108,54 L 18, 54 L -36,0 z"/>
   </g>
  </marker>
  <marker id="DefaultArrow8" markerUnits="strokeWidth" viewBox="0 0 1 1" markerWidth="1" markerHeight="1" overflow="visible" orient="auto">
   <!-- REF_ARROW_FEATHER2 -->
   <g transform="scale(0.0092592592)">
    <path d="M -36,0 L 18,-54 L 54,-54 L 18,-18 L 27,-18 L 63,-54 L 99,-54 L 63,-18 L 72,-18 L 108,-54 L 144,-54 L 90,0 L 144,54 L 108,54 L 72,18 L 63,18 L 99,54 L 63,54 L 27,18 L 18,18 L 54,54 L 18,54 z"/>
   </g>
  </marker>
  <marker id="DefaultArrow9" markerUnits="strokeWidth" viewBox="0 0 1 1" markerWidth="1" markerHeight="1" overflow="visible" orient="auto">
   <!-- REF_ARROW_HOLLOWDIAMOND -->
   <g transform="scale(0.0092592592)">
    <path d="M 0,45 L -45,0 L 0, -45 L 45, 0 z M 0, 63 L-63, 0 L 0, -63 L 63, 0 z"/>
   </g>
  </marker>
  <filter id="StainedFilter">
   <feBlend mode="multiply" in2="BackgroundImage" in="SourceGraphic" result="blend"/>
   <feComposite in="blend" in2="SourceAlpha" operator="in" result="comp"/>
  </filter>
  <filter id="BleachFilter">
   <feBlend mode="screen" in2="BackgroundImage" in="SourceGraphic" result="blend"/>
   <feComposite in="blend" in2="SourceAlpha" operator="in" result="comp"/>
  </filter>
  <filter id="InvertTransparencyBitmapFilter">
   <feComponentTransfer>
    <feFuncR type="gamma" amplitude="1.055" exponent=".416666666" offset="-0.055"/>
    <feFuncG type="gamma" amplitude="1.055" exponent=".416666666" offset="-0.055"/>
    <feFuncB type="gamma" amplitude="1.055" exponent=".416666666" offset="-0.055"/>
   </feComponentTransfer>
   <feComponentTransfer>
    <feFuncR type="linear" slope="-1" intercept="1"/>
    <feFuncG type="linear" slope="-1" intercept="1"/>
    <feFuncB type="linear" slope="-1" intercept="1"/>
    <feFuncA type="linear" slope="1" intercept="0"/>
   </feComponentTransfer>
   <feComponentTransfer>
    <feFuncR type="gamma" amplitude="1" exponent="2.4" offset="0"/>
    <feFuncG type="gamma" amplitude="1" exponent="2.4" offset="0"/>
    <feFuncB type="gamma" amplitude="1" exponent="2.4" offset="0"/>
   </feComponentTransfer>
  </filter>
 </defs>
 <g id="Document" fill="none" stroke="black" font-family="Times New Roman" font-size="16" transform="scale(1 -1)">
  <g id="Spread" transform="translate(0 -520.29)">
   <g id="Layer 1">
    <g id="Group" stroke="none">
     <path d="M 140.201,295.128 C 181.835,301.351 203.758,318.73 230.301,352.608 L 255.285,366.485 L 256.473,176.518 C 256.473,172.926 253.556,170.006 249.964,170.006 L 146.409,170.006 C 142.817,170.006 139.897,172.926 139.897,176.518 L 140.201,295.128 Z" fill="#7467f0" stroke-width="1.909" stroke-linejoin="miter" marker-start="none" marker-end="none" stroke-miterlimit="79.8403193612775"/>
     <path d="M 140.899,384.658 C 182.528,378.432 204.456,364.91 230.997,331.033 L 255.984,317.148 L 257.172,507.115 C 257.172,510.707 254.252,513.627 250.659,513.627 L 147.1,513.627 C 143.51,513.627 140.588,510.707 140.588,507.115 L 140.899,384.658 Z" fill="#7467f0" stroke-width="1.909" stroke-linejoin="miter" marker-start="none" marker-end="none" stroke-miterlimit="79.8403193612775"/>
     <path d="M 121.201,399.414 C 159.974,398.538 238.612,401.37 250.897,385.349 C 259.241,374.479 289.84,382.419 264.083,333.298 L 216.983,284.018 L 27.016,282.83 C 23.424,282.83 20.504,285.75 20.504,289.342 L 20.504,392.902 C 20.504,396.494 23.424,399.414 27.016,399.414 L 121.201,399.414 Z" fill="#7467f0" stroke-width="1.909" stroke-linejoin="miter" marker-start="none" marker-end="none" stroke-miterlimit="79.8403193612775"/>
     <path d="M 257.496,398.718 C 251.27,357.089 209.476,334.855 175.599,308.314 L 161.719,283.327 L 351.678,282.139 C 355.273,282.139 358.193,285.059 358.193,288.652 L 358.193,392.211 C 358.193,395.796 355.273,398.718 351.678,398.718 L 257.496,398.718 Z" fill="#7467f0" stroke-width="1.909" stroke-linejoin="miter" marker-start="none" marker-end="none" stroke-miterlimit="79.8403193612775"/>
     <path d="M 139.51,286.103 L 138.121,301.369 C 92.622,309.479 84.123,351.069 79.822,396.458 C 148.793,389.304 165.417,355.971 153.388,308.314 C 144.659,333.912 133.403,353.211 117.294,360.365 C 140.363,339.04 150.308,310.219 147.834,274.305 L 140.16,250.205 C 139.585,255.82 139.892,263.387 139.51,274.305 L 139.51,286.103 Z" fill="#ffffff" stroke-width="1.909" marker-start="none" marker-end="none" stroke-miterlimit="79.8403193612775"/>
     <path d="M 149.254,375.177 L 155.101,389.645 C 201.828,384.148 222.364,422.177 239.913,465.138 C 170.592,478.482 144.579,450.885 142.268,400.901 C 158.312,423.272 174.962,438.77 192.77,441.004 C 164.013,427.014 145.837,401.854 137.668,366.129 L 145.78,363.676 L 149.254,375.177 Z" fill="#ffffff" stroke-width="1.948" marker-start="none" marker-end="none" stroke-miterlimit="79.8403193612775"/>
     <path d="M 162.734,284.693 L 173.612,303.451 C 236.834,286.734 272.525,335.035 305.096,390.711 C 212.326,422.651 171.128,389.781 158.158,321.462 C 184.618,349.093 210.561,367.163 235.499,366.74 C 193.187,353.123 163.252,322.065 145.015,274.517 L 141.131,255.645 L 139.848,249.437 L 155.704,269.548 L 162.734,284.693 Z" fill="#ffffff" stroke-width="2.703" marker-start="none" marker-end="none" stroke-miterlimit="79.8403193612775"/>
     <g id="Group_1" fill-rule="nonzero" stroke-width="4.53" fill="#7467f0" stroke-miterlimit="79.8403193612775">
      <g id="Group_2">
       <path d="M 31.314,111.072 C 28.474,112.097 25.891,113.32 23.564,114.74 C 21.238,116.159 19.246,117.835 17.59,119.768 C 15.933,121.7 14.651,123.929 13.744,126.453 C 12.837,128.977 12.384,131.934 12.384,135.326 C 12.384,139.506 13.094,143.214 14.513,146.447 C 15.933,149.681 17.925,152.422 20.488,154.67 C 23.052,156.918 26.148,158.614 29.776,159.758 C 33.404,160.901 37.466,161.473 41.962,161.473 C 45.985,161.473 49.869,161.079 53.616,160.29 C 57.362,159.501 61.365,158.358 65.625,156.859 C 65.309,154.335 64.737,151.555 63.909,148.518 C 63.081,145.481 62.036,142.622 60.774,139.94 C 58.723,140.808 56.317,141.715 53.557,142.661 C 50.796,143.608 47.365,144.081 43.263,144.081 C 42.001,144.081 40.799,143.963 39.655,143.726 C 38.511,143.49 37.486,143.115 36.579,142.602 C 35.672,142.09 34.942,141.38 34.39,140.473 C 33.838,139.566 33.562,138.442 33.562,137.101 C 33.562,134.813 34.311,133.118 35.81,132.013 C 37.308,130.909 39.083,129.963 41.134,129.174 L 46.813,126.926 C 50.126,125.585 53.103,124.224 55.745,122.844 C 58.388,121.464 60.655,119.807 62.548,117.875 C 64.441,115.942 65.901,113.616 66.926,110.894 C 67.951,108.173 68.464,104.88 68.464,101.015 C 68.464,96.835 67.735,93.069 66.275,89.716 C 64.816,86.364 62.667,83.485 59.827,81.08 C 56.988,78.674 53.498,76.82 49.357,75.519 C 45.216,74.217 40.463,73.567 35.1,73.567 C 30.21,73.567 25.891,73.961 22.145,74.75 C 18.398,75.539 14.356,76.761 10.018,78.418 C 10.333,81.178 10.885,84.116 11.674,87.232 C 12.463,90.347 13.409,93.522 14.513,96.756 C 21.77,93.601 28.08,92.024 33.444,92.024 C 37.466,92.024 40.601,92.635 42.849,93.857 C 45.097,95.08 46.221,97.19 46.221,100.187 C 46.221,101.449 45.985,102.534 45.511,103.441 C 45.038,104.348 44.407,105.117 43.618,105.748 C 42.83,106.379 41.942,106.911 40.956,107.345 C 39.97,107.779 38.965,108.193 37.939,108.587 L 31.314,111.072 Z" marker-start="none" marker-end="none"/>
       <path d="M 128.199,95.336 C 130.802,89.657 132.537,83.821 133.405,77.826 C 131.118,76.958 128.988,76.249 127.016,75.696 C 125.044,75.144 123.151,74.73 121.337,74.454 C 119.523,74.178 117.729,73.981 115.954,73.863 C 114.179,73.744 112.345,73.685 110.452,73.685 C 103.748,73.685 97.852,74.77 92.764,76.939 C 87.677,79.108 83.418,82.125 79.987,85.99 C 76.556,89.854 73.972,94.469 72.237,99.832 C 70.502,105.196 69.634,111.032 69.634,117.343 C 69.634,123.653 70.541,129.509 72.356,134.912 C 74.17,140.315 76.792,144.988 80.223,148.932 C 83.654,152.876 87.894,155.952 92.942,158.16 C 97.99,160.369 103.708,161.473 110.097,161.473 C 113.883,161.473 117.472,161.197 120.864,160.645 C 124.255,160.093 128.041,158.989 132.222,157.332 C 132.064,154.098 131.473,150.963 130.447,147.926 C 129.422,144.89 128.357,142.228 127.253,139.94 C 125.675,140.492 124.236,140.966 122.934,141.36 C 121.633,141.754 120.391,142.07 119.207,142.307 C 118.024,142.543 116.841,142.721 115.658,142.839 C 114.475,142.957 113.213,143.016 111.872,143.016 C 105.483,143.016 100.534,140.867 97.024,136.568 C 93.514,132.27 91.759,125.861 91.759,117.343 C 91.759,100.621 98.779,92.26 112.819,92.26 C 115.343,92.26 117.729,92.497 119.976,92.97 C 122.224,93.443 124.965,94.232 128.199,95.336 Z" marker-start="none" marker-end="none"/>
       <path d="M 154.088,108.351 L 136.696,108.351 C 136.459,109.928 136.262,111.368 136.104,112.669 C 135.946,113.971 135.868,115.331 135.868,116.751 C 135.868,118.092 135.946,119.452 136.104,120.833 C 136.262,122.213 136.459,123.692 136.696,125.269 L 154.088,125.269 L 154.088,144.081 C 155.586,144.397 157.006,144.633 158.347,144.791 C 159.688,144.949 161.068,145.028 162.488,145.028 C 163.829,145.028 165.189,144.949 166.57,144.791 C 167.95,144.633 169.429,144.397 171.006,144.081 L 171.006,125.269 L 188.28,125.269 C 188.596,123.692 188.832,122.233 188.99,120.892 C 189.148,119.551 189.227,118.21 189.227,116.869 C 189.227,115.528 189.148,114.168 188.99,112.787 C 188.832,111.407 188.596,109.928 188.28,108.351 L 171.006,108.351 L 171.006,89.539 C 169.429,89.223 167.97,88.987 166.629,88.829 C 165.288,88.671 163.947,88.592 162.606,88.592 C 160.082,88.592 157.243,88.908 154.088,89.539 L 154.088,108.351 Z" marker-start="none" marker-end="none"/>
       <path d="M 213.011,111.072 C 210.171,112.097 207.588,113.32 205.261,114.74 C 202.935,116.159 200.943,117.835 199.287,119.768 C 197.63,121.7 196.348,123.929 195.441,126.453 C 194.534,128.977 194.081,131.934 194.081,135.326 C 194.081,139.506 194.791,143.214 196.21,146.447 C 197.63,149.681 199.622,152.422 202.185,154.67 C 204.749,156.918 207.845,158.614 211.473,159.758 C 215.101,160.901 219.163,161.473 223.659,161.473 C 227.682,161.473 231.566,161.079 235.313,160.29 C 239.059,159.501 243.062,158.358 247.322,156.859 C 247.006,154.335 246.434,151.555 245.606,148.518 C 244.778,145.481 243.733,142.622 242.471,139.94 C 240.42,140.808 238.014,141.715 235.254,142.661 C 232.493,143.608 229.062,144.081 224.96,144.081 C 223.698,144.081 222.496,143.963 221.352,143.726 C 220.208,143.49 219.183,143.115 218.276,142.602 C 217.369,142.09 216.639,141.38 216.087,140.473 C 215.535,139.566 215.259,138.442 215.259,137.101 C 215.259,134.813 216.008,133.118 217.507,132.013 C 219.005,130.909 220.78,129.963 222.831,129.174 L 228.51,126.926 C 231.823,125.585 234.8,124.224 237.442,122.844 C 240.085,121.464 242.352,119.807 244.245,117.875 C 246.138,115.942 247.598,113.616 248.623,110.894 C 249.648,108.173 250.161,104.88 250.161,101.015 C 250.161,96.835 249.432,93.069 247.972,89.716 C 246.513,86.364 244.364,83.485 241.524,81.08 C 238.685,78.674 235.195,76.82 231.054,75.519 C 226.913,74.217 222.16,73.567 216.797,73.567 C 211.907,73.567 207.588,73.961 203.842,74.75 C 200.095,75.539 196.053,76.761 191.715,78.418 C 192.03,81.178 192.582,84.116 193.371,87.232 C 194.16,90.347 195.106,93.522 196.21,96.756 C 203.467,93.601 209.777,92.024 215.141,92.024 C 219.163,92.024 222.298,92.635 224.546,93.857 C 226.794,95.08 227.918,97.19 227.918,100.187 C 227.918,101.449 227.682,102.534 227.208,103.441 C 226.735,104.348 226.104,105.117 225.315,105.748 C 224.527,106.379 223.639,106.911 222.653,107.345 C 221.667,107.779 220.662,108.193 219.636,108.587 L 213.011,111.072 Z" marker-start="none" marker-end="none"/>
       <path d="M 253.106,159.817 C 255.393,160.132 257.365,160.349 259.022,160.468 C 260.678,160.586 262.256,160.645 263.754,160.645 C 265.095,160.645 266.574,160.586 268.191,160.468 C 269.808,160.349 271.76,160.132 274.047,159.817 L 274.047,113.911 C 274.047,109.968 274.205,106.615 274.521,103.855 C 274.836,101.094 275.408,98.846 276.236,97.111 C 277.064,95.376 278.228,94.133 279.726,93.384 C 281.225,92.635 283.197,92.26 285.642,92.26 C 288.087,92.26 290.079,92.635 291.617,93.384 C 293.155,94.133 294.338,95.376 295.166,97.111 C 295.994,98.846 296.547,101.094 296.823,103.855 C 297.099,106.615 297.237,109.968 297.237,113.911 L 297.237,159.817 C 299.603,160.132 301.595,160.349 303.212,160.468 C 304.828,160.586 306.307,160.645 307.648,160.645 C 309.068,160.645 310.606,160.586 312.262,160.468 C 313.919,160.349 315.891,160.132 318.178,159.817 L 318.178,111.427 C 318.178,105.59 317.685,100.345 316.699,95.691 C 315.713,91.038 313.998,87.074 311.553,83.801 C 309.107,80.527 305.775,78.023 301.555,76.288 C 297.335,74.553 292.031,73.685 285.642,73.685 C 279.253,73.685 273.949,74.553 269.729,76.288 C 265.509,78.023 262.177,80.527 259.732,83.801 C 257.286,87.074 255.571,91.038 254.585,95.691 C 253.599,100.345 253.106,105.59 253.106,111.427 L 253.106,159.817 Z" marker-start="none" marker-end="none"/>
       <path d="M 341.017,111.072 C 338.177,112.097 335.594,113.32 333.267,114.74 C 330.941,116.159 328.949,117.835 327.293,119.768 C 325.636,121.7 324.354,123.929 323.447,126.453 C 322.54,128.977 322.087,131.934 322.087,135.326 C 322.087,139.506 322.797,143.214 324.216,146.447 C 325.636,149.681 327.628,152.422 330.191,154.67 C 332.755,156.918 335.851,158.614 339.479,159.758 C 343.107,160.901 347.169,161.473 351.665,161.473 C 355.688,161.473 359.572,161.079 363.319,160.29 C 367.065,159.501 371.068,158.358 375.328,156.859 C 375.012,154.335 374.44,151.555 373.612,148.518 C 372.784,145.481 371.739,142.622 370.477,139.94 C 368.426,140.808 366.02,141.715 363.26,142.661 C 360.499,143.608 357.068,144.081 352.966,144.081 C 351.704,144.081 350.502,143.963 349.358,143.726 C 348.214,143.49 347.189,143.115 346.282,142.602 C 345.375,142.09 344.645,141.38 344.093,140.473 C 343.541,139.566 343.265,138.442 343.265,137.101 C 343.265,134.813 344.014,133.118 345.513,132.013 C 347.011,130.909 348.786,129.963 350.837,129.174 L 356.516,126.926 C 359.829,125.585 362.806,124.224 365.448,122.844 C 368.091,121.464 370.358,119.807 372.251,117.875 C 374.144,115.942 375.604,113.616 376.629,110.894 C 377.654,108.173 378.167,104.88 378.167,101.015 C 378.167,96.835 377.438,93.069 375.978,89.716 C 374.519,86.364 372.37,83.485 369.53,81.08 C 366.691,78.674 363.201,76.82 359.06,75.519 C 354.919,74.217 350.166,73.567 344.803,73.567 C 339.913,73.567 335.594,73.961 331.848,74.75 C 328.101,75.539 324.059,76.761 319.721,78.418 C 320.036,81.178 320.588,84.116 321.377,87.232 C 322.166,90.347 323.112,93.522 324.216,96.756 C 331.473,93.601 337.783,92.024 343.147,92.024 C 347.169,92.024 350.304,92.635 352.552,93.857 C 354.8,95.08 355.924,97.19 355.924,100.187 C 355.924,101.449 355.688,102.534 355.214,103.441 C 354.741,104.348 354.11,105.117 353.321,105.748 C 352.533,106.379 351.645,106.911 350.659,107.345 C 349.673,107.779 348.668,108.193 347.642,108.587 L 341.017,111.072 Z" marker-start="none" marker-end="none"/>
      </g>
     </g>
     <g id="Group_3" fill-rule="nonzero" stroke-width="0.644" fill="#7467f0" stroke-miterlimit="79.8403193612775">
      <g id="Group_4">
       <path d="M 5.069,51.361 L 5.863,53.288 C 6.712,52.693 7.547,52.395 8.369,52.395 C 9.632,52.395 10.263,52.836 10.263,53.718 C 10.263,54.132 10.114,54.526 9.816,54.901 C 9.519,55.276 8.905,55.696 7.976,56.162 C 7.047,56.628 6.421,57.011 6.099,57.312 C 5.776,57.612 5.528,57.969 5.354,58.383 C 5.181,58.796 5.094,59.254 5.094,59.756 C 5.094,60.693 5.437,61.47 6.124,62.088 C 6.81,62.705 7.691,63.014 8.766,63.014 C 10.167,63.014 11.195,62.752 11.851,62.229 L 11.197,60.376 C 10.442,60.916 9.645,61.186 8.807,61.186 C 8.311,61.186 7.927,61.055 7.654,60.794 C 7.381,60.532 7.244,60.191 7.244,59.772 C 7.244,59.078 8.013,58.355 9.552,57.606 C 10.362,57.208 10.946,56.843 11.305,56.51 C 11.663,56.176 11.936,55.787 12.124,55.343 C 12.311,54.9 12.405,54.405 12.405,53.859 C 12.405,52.878 12.018,52.07 11.243,51.436 C 10.468,50.802 9.43,50.485 8.129,50.485 C 6.999,50.485 5.979,50.777 5.069,51.361 Z" marker-start="none" marker-end="none"/>
       <path d="M 14.668,62.981 C 14.999,62.981 15.281,62.864 15.516,62.63 C 15.75,62.395 15.867,62.113 15.867,61.782 C 15.867,61.451 15.75,61.169 15.516,60.934 C 15.281,60.7 14.999,60.583 14.668,60.583 C 14.337,60.583 14.055,60.7 13.82,60.934 C 13.586,61.169 13.469,61.451 13.469,61.782 C 13.469,62.113 13.586,62.395 13.82,62.63 C 14.055,62.864 14.337,62.981 14.668,62.981 Z M 13.601,50.692 L 13.601,57.854 L 12.468,57.854 L 12.468,59.549 L 15.693,59.549 L 15.693,50.692 L 13.601,50.692 Z" marker-start="none" marker-end="none"/>
       <path d="M 16.418,51.262 L 17.154,52.908 C 17.772,52.417 18.469,52.172 19.247,52.172 C 20.052,52.172 20.454,52.458 20.454,53.032 C 20.454,53.368 20.333,53.644 20.09,53.859 C 19.848,54.074 19.376,54.328 18.676,54.62 C 17.149,55.254 16.385,56.142 16.385,57.283 C 16.385,58.049 16.677,58.646 17.262,59.074 C 17.846,59.501 18.593,59.714 19.503,59.714 C 20.424,59.714 21.289,59.508 22.1,59.094 L 21.504,57.49 C 21.052,57.876 20.424,58.069 19.619,58.069 C 18.897,58.069 18.535,57.782 18.535,57.208 C 18.535,56.982 18.654,56.778 18.891,56.597 C 19.128,56.415 19.635,56.171 20.413,55.865 C 21.19,55.558 21.75,55.188 22.092,54.752 C 22.433,54.317 22.604,53.79 22.604,53.173 C 22.604,52.351 22.3,51.705 21.691,51.233 C 21.081,50.762 20.253,50.526 19.205,50.526 C 18.615,50.526 18.143,50.574 17.787,50.671 C 17.431,50.767 16.975,50.965 16.418,51.262 Z" marker-start="none" marker-end="none"/>
       <path d="M 23.437,57.887 L 22.412,57.887 L 22.412,59.549 L 23.437,59.549 L 23.437,61.352 L 25.505,62.113 L 25.505,59.549 L 27.936,59.549 L 27.936,57.887 L 25.505,57.887 L 25.505,54.008 C 25.505,53.374 25.604,52.926 25.803,52.664 C 26.001,52.402 26.348,52.271 26.845,52.271 C 27.341,52.271 27.804,52.406 28.234,52.676 L 28.234,50.774 C 27.754,50.609 27.071,50.526 26.183,50.526 C 25.301,50.526 24.623,50.775 24.148,51.275 C 23.674,51.773 23.437,52.483 23.437,53.404 L 23.437,57.887 Z" marker-start="none" marker-end="none"/>
       <path d="M 36.609,54.488 L 30.283,54.488 C 30.321,53.782 30.564,53.233 31.01,52.842 C 31.457,52.45 32.058,52.255 32.813,52.255 C 33.756,52.255 34.473,52.5 34.964,52.991 L 35.766,51.411 C 35.038,50.821 33.952,50.526 32.507,50.526 C 31.157,50.526 30.088,50.922 29.303,51.713 C 28.517,52.504 28.124,53.608 28.124,55.025 C 28.124,56.42 28.555,57.55 29.418,58.416 C 30.281,59.281 31.316,59.714 32.524,59.714 C 33.808,59.714 34.84,59.331 35.617,58.565 C 36.395,57.798 36.783,56.823 36.783,55.637 C 36.783,55.384 36.725,55 36.609,54.488 Z M 30.357,56.042 L 34.707,56.042 C 34.564,57.338 33.847,57.986 32.557,57.986 C 31.377,57.986 30.644,57.338 30.357,56.042 Z" marker-start="none" marker-end="none"/>
       <path d="M 47.556,50.692 L 47.556,56.241 C 47.556,57.404 47.035,57.986 45.993,57.986 C 45.684,57.986 45.387,57.895 45.1,57.713 C 44.813,57.531 44.612,57.322 44.496,57.085 L 44.496,50.692 L 42.429,50.692 L 42.429,56.563 C 42.429,56.999 42.293,57.345 42.023,57.601 C 41.753,57.858 41.373,57.986 40.882,57.986 C 40.623,57.986 40.34,57.89 40.034,57.696 C 39.728,57.503 39.506,57.291 39.369,57.06 L 39.369,50.692 L 37.301,50.692 L 37.301,59.549 L 38.723,59.549 L 39.145,58.772 C 39.719,59.4 40.46,59.714 41.37,59.714 C 42.545,59.714 43.429,59.395 44.025,58.755 C 44.284,59.047 44.645,59.28 45.108,59.454 C 45.571,59.628 46.034,59.714 46.498,59.714 C 47.484,59.714 48.252,59.432 48.801,58.867 C 49.35,58.302 49.624,57.526 49.624,56.539 L 49.624,50.692 L 47.556,50.692 Z" marker-start="none" marker-end="none"/>
       <path d="M 55.65,51.576 C 55.463,51.268 55.136,51.015 54.67,50.82 C 54.204,50.624 53.718,50.526 53.21,50.526 C 52.256,50.526 51.507,50.764 50.961,51.242 C 50.415,51.718 50.142,52.395 50.142,53.272 C 50.142,54.297 50.526,55.1 51.296,55.678 C 52.065,56.257 53.158,56.547 54.575,56.547 C 54.818,56.547 55.104,56.506 55.435,56.423 C 55.435,57.465 54.776,57.986 53.459,57.986 C 52.681,57.986 52.03,57.856 51.507,57.597 L 51.06,59.202 C 51.771,59.544 52.618,59.714 53.599,59.714 C 54.95,59.714 55.94,59.407 56.568,58.792 C 57.197,58.178 57.511,57.013 57.511,55.298 L 57.511,53.404 C 57.511,52.224 57.748,51.483 58.222,51.179 C 58.051,50.882 57.861,50.698 57.652,50.629 C 57.442,50.56 57.202,50.526 56.932,50.526 C 56.634,50.526 56.367,50.636 56.13,50.857 C 55.893,51.077 55.733,51.317 55.65,51.576 Z M 55.452,54.86 C 55.099,54.931 54.834,54.967 54.658,54.967 C 53.026,54.967 52.21,54.432 52.21,53.363 C 52.21,52.569 52.67,52.172 53.591,52.172 C 54.831,52.172 55.452,52.792 55.452,54.033 L 55.452,54.86 Z" marker-start="none" marker-end="none"/>
       <path d="M 68.273,50.692 L 68.273,51.229 C 68.102,51.042 67.813,50.878 67.405,50.737 C 66.997,50.596 66.575,50.526 66.139,50.526 C 64.905,50.526 63.933,50.918 63.224,51.7 C 62.516,52.484 62.161,53.575 62.161,54.976 C 62.161,56.376 62.568,57.516 63.381,58.395 C 64.195,59.275 65.213,59.714 66.437,59.714 C 67.11,59.714 67.722,59.576 68.273,59.301 L 68.273,62.849 L 70.341,63.345 L 70.341,50.692 L 68.273,50.692 Z M 68.273,57.432 C 67.832,57.785 67.372,57.961 66.892,57.961 C 66.065,57.961 65.428,57.709 64.982,57.204 C 64.535,56.7 64.312,55.976 64.312,55.033 C 64.312,53.192 65.199,52.271 66.975,52.271 C 67.173,52.271 67.417,52.33 67.707,52.449 C 67.996,52.567 68.185,52.687 68.273,52.809 L 68.273,57.432 Z" marker-start="none" marker-end="none"/>
       <path d="M 79.179,54.488 L 72.853,54.488 C 72.891,53.782 73.134,53.233 73.58,52.842 C 74.027,52.45 74.628,52.255 75.383,52.255 C 76.326,52.255 77.043,52.5 77.534,52.991 L 78.336,51.411 C 77.608,50.821 76.522,50.526 75.077,50.526 C 73.727,50.526 72.658,50.922 71.873,51.713 C 71.087,52.504 70.694,53.608 70.694,55.025 C 70.694,56.42 71.125,57.55 71.988,58.416 C 72.851,59.281 73.886,59.714 75.094,59.714 C 76.378,59.714 77.41,59.331 78.187,58.565 C 78.965,57.798 79.353,56.823 79.353,55.637 C 79.353,55.384 79.295,55 79.179,54.488 Z M 72.927,56.042 L 77.277,56.042 C 77.134,57.338 76.417,57.986 75.127,57.986 C 73.947,57.986 73.214,57.338 72.927,56.042 Z" marker-start="none" marker-end="none"/>
       <path d="M 92.911,61.823 L 92.009,60.095 C 91.755,60.321 91.364,60.545 90.835,60.769 C 90.305,60.992 89.851,61.104 89.47,61.104 C 88.279,61.104 87.339,60.7 86.65,59.892 C 85.961,59.085 85.616,58.003 85.616,56.646 C 85.616,55.356 85.954,54.325 86.629,53.553 C 87.305,52.781 88.224,52.395 89.387,52.395 C 90.154,52.395 90.785,52.605 91.281,53.024 L 91.281,55.406 L 89.602,55.406 L 89.602,57.242 L 93.431,57.242 L 93.431,51.816 C 92.919,51.397 92.259,51.07 91.451,50.836 C 90.643,50.602 89.84,50.485 89.04,50.485 C 87.303,50.485 85.926,51.054 84.909,52.193 C 83.892,53.331 83.383,54.835 83.383,56.704 C 83.383,58.573 83.937,60.092 85.045,61.261 C 86.154,62.43 87.645,63.014 89.52,63.014 C 90.849,63.014 91.979,62.617 92.911,61.823 Z" marker-start="none" marker-end="none"/>
       <path d="M 101.98,54.488 L 95.654,54.488 C 95.692,53.782 95.935,53.233 96.381,52.842 C 96.828,52.45 97.429,52.255 98.184,52.255 C 99.127,52.255 99.844,52.5 100.335,52.991 L 101.137,51.411 C 100.409,50.821 99.323,50.526 97.878,50.526 C 96.528,50.526 95.459,50.922 94.674,51.713 C 93.888,52.504 93.495,53.608 93.495,55.025 C 93.495,56.42 93.926,57.55 94.789,58.416 C 95.652,59.281 96.687,59.714 97.895,59.714 C 99.179,59.714 100.211,59.331 100.988,58.565 C 101.766,57.798 102.154,56.823 102.154,55.637 C 102.154,55.384 102.096,55 101.98,54.488 Z M 95.728,56.042 L 100.078,56.042 C 99.935,57.338 99.218,57.986 97.928,57.986 C 96.748,57.986 96.015,57.338 95.728,56.042 Z" marker-start="none" marker-end="none"/>
       <path d="M 107.791,57.622 C 107.422,57.865 107.017,57.986 106.576,57.986 C 106.096,57.986 105.67,57.768 105.298,57.332 C 104.926,56.897 104.74,56.365 104.74,55.736 L 104.74,50.692 L 102.672,50.692 L 102.672,59.549 L 104.74,59.549 L 104.74,58.739 C 105.318,59.389 106.087,59.714 107.047,59.714 C 107.753,59.714 108.293,59.607 108.668,59.392 L 107.791,57.622 Z" marker-start="none" marker-end="none"/>
       <path d="M 116.679,54.488 L 110.353,54.488 C 110.391,53.782 110.634,53.233 111.08,52.842 C 111.527,52.45 112.128,52.255 112.883,52.255 C 113.826,52.255 114.543,52.5 115.034,52.991 L 115.836,51.411 C 115.108,50.821 114.022,50.526 112.577,50.526 C 111.227,50.526 110.158,50.922 109.373,51.713 C 108.587,52.504 108.194,53.608 108.194,55.025 C 108.194,56.42 108.625,57.55 109.488,58.416 C 110.351,59.281 111.386,59.714 112.594,59.714 C 113.878,59.714 114.91,59.331 115.687,58.565 C 116.465,57.798 116.853,56.823 116.853,55.637 C 116.853,55.384 116.795,55 116.679,54.488 Z M 110.427,56.042 L 114.777,56.042 C 114.634,57.338 113.917,57.986 112.627,57.986 C 111.447,57.986 110.714,57.338 110.427,56.042 Z" marker-start="none" marker-end="none"/>
       <path d="M 123.069,50.692 L 123.069,55.811 C 123.069,56.566 122.925,57.118 122.635,57.465 C 122.346,57.812 121.873,57.986 121.217,57.986 C 120.913,57.986 120.589,57.901 120.245,57.73 C 119.9,57.559 119.632,57.346 119.439,57.093 L 119.439,50.692 L 117.371,50.692 L 117.371,59.549 L 118.86,59.549 L 119.24,58.722 C 119.802,59.384 120.632,59.714 121.729,59.714 C 122.783,59.714 123.614,59.399 124.223,58.767 C 124.832,58.136 125.137,57.255 125.137,56.125 L 125.137,50.692 L 123.069,50.692 Z" marker-start="none" marker-end="none"/>
       <path d="M 133.181,58.846 L 132.296,57.3 C 131.811,57.757 131.16,57.986 130.344,57.986 C 129.561,57.986 128.942,57.726 128.488,57.204 C 128.033,56.683 127.805,55.962 127.805,55.042 C 127.805,53.184 128.69,52.255 130.46,52.255 C 131.226,52.255 131.902,52.508 132.486,53.015 L 133.247,51.386 C 132.646,51.011 132.121,50.774 131.672,50.675 C 131.222,50.576 130.692,50.526 130.08,50.526 C 128.712,50.526 127.633,50.924 126.842,51.721 C 126.05,52.518 125.655,53.625 125.655,55.042 C 125.655,56.437 126.088,57.564 126.954,58.424 C 127.819,59.284 128.999,59.714 130.493,59.714 C 131.524,59.714 132.42,59.425 133.181,58.846 Z" marker-start="none" marker-end="none"/>
       <path d="M 135.387,62.981 C 135.718,62.981 136,62.864 136.235,62.63 C 136.469,62.395 136.586,62.113 136.586,61.782 C 136.586,61.451 136.469,61.169 136.235,60.934 C 136,60.7 135.718,60.583 135.387,60.583 C 135.056,60.583 134.774,60.7 134.539,60.934 C 134.305,61.169 134.188,61.451 134.188,61.782 C 134.188,62.113 134.305,62.395 134.539,62.63 C 134.774,62.864 135.056,62.981 135.387,62.981 Z M 134.32,50.692 L 134.32,57.854 L 133.187,57.854 L 133.187,59.549 L 136.412,59.549 L 136.412,50.692 L 134.32,50.692 Z" marker-start="none" marker-end="none"/>
       <path d="M 142.612,51.576 C 142.425,51.268 142.098,51.015 141.632,50.82 C 141.166,50.624 140.68,50.526 140.172,50.526 C 139.218,50.526 138.469,50.764 137.923,51.242 C 137.377,51.718 137.104,52.395 137.104,53.272 C 137.104,54.297 137.488,55.1 138.258,55.678 C 139.027,56.257 140.12,56.547 141.537,56.547 C 141.78,56.547 142.066,56.506 142.397,56.423 C 142.397,57.465 141.738,57.986 140.421,57.986 C 139.643,57.986 138.992,57.856 138.469,57.597 L 138.022,59.202 C 138.733,59.544 139.58,59.714 140.561,59.714 C 141.912,59.714 142.902,59.407 143.53,58.792 C 144.159,58.178 144.473,57.013 144.473,55.298 L 144.473,53.404 C 144.473,52.224 144.71,51.483 145.184,51.179 C 145.013,50.882 144.823,50.698 144.614,50.629 C 144.404,50.56 144.164,50.526 143.894,50.526 C 143.596,50.526 143.329,50.636 143.092,50.857 C 142.855,51.077 142.695,51.317 142.612,51.576 Z M 142.414,54.86 C 142.061,54.931 141.796,54.967 141.62,54.967 C 139.988,54.967 139.172,54.432 139.172,53.363 C 139.172,52.569 139.632,52.172 140.553,52.172 C 141.793,52.172 142.414,52.792 142.414,54.033 L 142.414,54.86 Z" marker-start="none" marker-end="none"/>
       <path d="M 151.268,50.692 L 151.268,51.229 C 151.097,51.042 150.808,50.878 150.4,50.737 C 149.992,50.596 149.57,50.526 149.134,50.526 C 147.9,50.526 146.928,50.918 146.219,51.7 C 145.511,52.484 145.156,53.575 145.156,54.976 C 145.156,56.376 145.563,57.516 146.376,58.395 C 147.19,59.275 148.208,59.714 149.432,59.714 C 150.105,59.714 150.717,59.576 151.268,59.301 L 151.268,62.849 L 153.336,63.345 L 153.336,50.692 L 151.268,50.692 Z M 151.268,57.432 C 150.827,57.785 150.367,57.961 149.887,57.961 C 149.06,57.961 148.423,57.709 147.977,57.204 C 147.53,56.7 147.307,55.976 147.307,55.033 C 147.307,53.192 148.194,52.271 149.97,52.271 C 150.168,52.271 150.412,52.33 150.702,52.449 C 150.991,52.567 151.18,52.687 151.268,52.809 L 151.268,57.432 Z" marker-start="none" marker-end="none"/>
       <path d="M 153.689,55.141 C 153.689,56.492 154.079,57.592 154.859,58.441 C 155.639,59.29 156.669,59.714 157.948,59.714 C 159.294,59.714 160.338,59.306 161.083,58.49 C 161.827,57.675 162.199,56.558 162.199,55.141 C 162.199,53.729 161.82,52.607 161.062,51.775 C 160.304,50.942 159.266,50.526 157.948,50.526 C 156.603,50.526 155.557,50.947 154.81,51.787 C 154.063,52.628 153.689,53.746 153.689,55.141 Z M 155.839,55.141 C 155.839,53.189 156.542,52.213 157.948,52.213 C 158.593,52.213 159.105,52.467 159.482,52.974 C 159.86,53.481 160.049,54.204 160.049,55.141 C 160.049,57.065 159.349,58.027 157.948,58.027 C 157.303,58.027 156.791,57.774 156.41,57.266 C 156.029,56.759 155.839,56.051 155.839,55.141 Z" marker-start="none" marker-end="none"/>
       <path d="M 167.836,57.622 C 167.467,57.865 167.062,57.986 166.621,57.986 C 166.141,57.986 165.715,57.768 165.343,57.332 C 164.971,56.897 164.785,56.365 164.785,55.736 L 164.785,50.692 L 162.717,50.692 L 162.717,59.549 L 164.785,59.549 L 164.785,58.739 C 165.363,59.389 166.132,59.714 167.092,59.714 C 167.798,59.714 168.338,59.607 168.713,59.392 L 167.836,57.622 Z" marker-start="none" marker-end="none"/>
       <path d="M 178.483,50.692 L 178.483,51.229 C 178.312,51.042 178.023,50.878 177.615,50.737 C 177.207,50.596 176.785,50.526 176.349,50.526 C 175.115,50.526 174.143,50.918 173.434,51.7 C 172.726,52.484 172.371,53.575 172.371,54.976 C 172.371,56.376 172.778,57.516 173.591,58.395 C 174.405,59.275 175.423,59.714 176.647,59.714 C 177.32,59.714 177.932,59.576 178.483,59.301 L 178.483,62.849 L 180.551,63.345 L 180.551,50.692 L 178.483,50.692 Z M 178.483,57.432 C 178.042,57.785 177.582,57.961 177.102,57.961 C 176.275,57.961 175.638,57.709 175.192,57.204 C 174.745,56.7 174.522,55.976 174.522,55.033 C 174.522,53.192 175.409,52.271 177.185,52.271 C 177.383,52.271 177.627,52.33 177.917,52.449 C 178.206,52.567 178.395,52.687 178.483,52.809 L 178.483,57.432 Z" marker-start="none" marker-end="none"/>
       <path d="M 189.389,54.488 L 183.063,54.488 C 183.101,53.782 183.344,53.233 183.79,52.842 C 184.237,52.45 184.838,52.255 185.593,52.255 C 186.536,52.255 187.253,52.5 187.744,52.991 L 188.546,51.411 C 187.818,50.821 186.732,50.526 185.287,50.526 C 183.937,50.526 182.868,50.922 182.083,51.713 C 181.297,52.504 180.904,53.608 180.904,55.025 C 180.904,56.42 181.335,57.55 182.198,58.416 C 183.061,59.281 184.096,59.714 185.304,59.714 C 186.588,59.714 187.62,59.331 188.397,58.565 C 189.175,57.798 189.563,56.823 189.563,55.637 C 189.563,55.384 189.505,55 189.389,54.488 Z M 183.137,56.042 L 187.487,56.042 C 187.344,57.338 186.627,57.986 185.337,57.986 C 184.157,57.986 183.424,57.338 183.137,56.042 Z" marker-start="none" marker-end="none"/>
       <path d="M 201.003,50.692 L 197.77,55.695 C 197.444,55.701 196.989,55.72 196.405,55.753 L 196.405,50.692 L 194.172,50.692 L 194.172,62.808 C 194.293,62.808 194.759,62.828 195.57,62.87 C 196.38,62.911 197.034,62.932 197.53,62.932 C 200.606,62.932 202.145,61.741 202.145,59.359 C 202.145,58.642 201.932,57.989 201.508,57.399 C 201.083,56.809 200.548,56.392 199.903,56.15 L 203.484,50.692 L 201.003,50.692 Z M 196.405,60.939 L 196.405,57.572 C 196.802,57.539 197.105,57.523 197.315,57.523 C 198.213,57.523 198.871,57.65 199.287,57.903 C 199.703,58.157 199.912,58.65 199.912,59.384 C 199.912,59.979 199.688,60.395 199.242,60.632 C 198.795,60.87 198.092,60.988 197.133,60.988 C 196.901,60.988 196.659,60.972 196.405,60.939 Z" marker-start="none" marker-end="none"/>
       <path d="M 211.164,54.488 L 204.838,54.488 C 204.876,53.782 205.119,53.233 205.565,52.842 C 206.012,52.45 206.613,52.255 207.368,52.255 C 208.311,52.255 209.028,52.5 209.519,52.991 L 210.321,51.411 C 209.593,50.821 208.507,50.526 207.062,50.526 C 205.712,50.526 204.643,50.922 203.858,51.713 C 203.072,52.504 202.679,53.608 202.679,55.025 C 202.679,56.42 203.11,57.55 203.973,58.416 C 204.836,59.281 205.871,59.714 207.079,59.714 C 208.363,59.714 209.395,59.331 210.172,58.565 C 210.95,57.798 211.338,56.823 211.338,55.637 C 211.338,55.384 211.28,55 211.164,54.488 Z M 204.912,56.042 L 209.262,56.042 C 209.119,57.338 208.402,57.986 207.112,57.986 C 205.932,57.986 205.199,57.338 204.912,56.042 Z" marker-start="none" marker-end="none"/>
       <path d="M 212.212,62.849 L 214.279,63.345 L 214.279,53.388 C 214.279,52.296 214.604,51.645 215.255,51.436 C 214.935,50.829 214.39,50.526 213.617,50.526 C 212.68,50.526 212.212,51.177 212.212,52.478 L 212.212,62.849 Z" marker-start="none" marker-end="none"/>
       <path d="M 220.644,51.576 C 220.457,51.268 220.13,51.015 219.664,50.82 C 219.198,50.624 218.712,50.526 218.204,50.526 C 217.25,50.526 216.501,50.764 215.955,51.242 C 215.409,51.718 215.136,52.395 215.136,53.272 C 215.136,54.297 215.52,55.1 216.29,55.678 C 217.059,56.257 218.152,56.547 219.569,56.547 C 219.812,56.547 220.098,56.506 220.429,56.423 C 220.429,57.465 219.77,57.986 218.453,57.986 C 217.675,57.986 217.024,57.856 216.501,57.597 L 216.054,59.202 C 216.765,59.544 217.612,59.714 218.593,59.714 C 219.944,59.714 220.934,59.407 221.562,58.792 C 222.191,58.178 222.505,57.013 222.505,55.298 L 222.505,53.404 C 222.505,52.224 222.742,51.483 223.216,51.179 C 223.045,50.882 222.855,50.698 222.646,50.629 C 222.436,50.56 222.196,50.526 221.926,50.526 C 221.628,50.526 221.361,50.636 221.124,50.857 C 220.887,51.077 220.727,51.317 220.644,51.576 Z M 220.446,54.86 C 220.093,54.931 219.828,54.967 219.652,54.967 C 218.02,54.967 217.204,54.432 217.204,53.363 C 217.204,52.569 217.664,52.172 218.585,52.172 C 219.825,52.172 220.446,52.792 220.446,54.033 L 220.446,54.86 Z M 221.107,63.163 L 219.238,60.74 L 217.667,60.74 L 219.064,63.163 L 221.107,63.163 Z" marker-start="none" marker-end="none"/>
       <path d="M 223.916,57.887 L 222.891,57.887 L 222.891,59.549 L 223.916,59.549 L 223.916,61.352 L 225.984,62.113 L 225.984,59.549 L 228.415,59.549 L 228.415,57.887 L 225.984,57.887 L 225.984,54.008 C 225.984,53.374 226.083,52.926 226.282,52.664 C 226.48,52.402 226.827,52.271 227.324,52.271 C 227.82,52.271 228.283,52.406 228.713,52.676 L 228.713,50.774 C 228.233,50.609 227.55,50.526 226.662,50.526 C 225.78,50.526 225.102,50.775 224.627,51.275 C 224.153,51.773 223.916,52.483 223.916,53.404 L 223.916,57.887 Z" marker-start="none" marker-end="none"/>
       <path d="M 228.603,55.141 C 228.603,56.492 228.993,57.592 229.773,58.441 C 230.553,59.29 231.583,59.714 232.862,59.714 C 234.208,59.714 235.252,59.306 235.997,58.49 C 236.741,57.675 237.113,56.558 237.113,55.141 C 237.113,53.729 236.734,52.607 235.976,51.775 C 235.218,50.942 234.18,50.526 232.862,50.526 C 231.517,50.526 230.471,50.947 229.724,51.787 C 228.977,52.628 228.603,53.746 228.603,55.141 Z M 230.753,55.141 C 230.753,53.189 231.456,52.213 232.862,52.213 C 233.507,52.213 234.019,52.467 234.396,52.974 C 234.774,53.481 234.963,54.204 234.963,55.141 C 234.963,57.065 234.263,58.027 232.862,58.027 C 232.217,58.027 231.705,57.774 231.324,57.266 C 230.943,56.759 230.753,56.051 230.753,55.141 Z" marker-start="none" marker-end="none"/>
       <path d="M 242.75,57.622 C 242.381,57.865 241.976,57.986 241.535,57.986 C 241.055,57.986 240.629,57.768 240.257,57.332 C 239.885,56.897 239.699,56.365 239.699,55.736 L 239.699,50.692 L 237.631,50.692 L 237.631,59.549 L 239.699,59.549 L 239.699,58.739 C 240.277,59.389 241.046,59.714 242.006,59.714 C 242.712,59.714 243.252,59.607 243.627,59.392 L 242.75,57.622 Z" marker-start="none" marker-end="none"/>
       <path d="M 245.353,62.981 C 245.684,62.981 245.966,62.864 246.201,62.63 C 246.435,62.395 246.552,62.113 246.552,61.782 C 246.552,61.451 246.435,61.169 246.201,60.934 C 245.966,60.7 245.684,60.583 245.353,60.583 C 245.022,60.583 244.74,60.7 244.505,60.934 C 244.271,61.169 244.154,61.451 244.154,61.782 C 244.154,62.113 244.271,62.395 244.505,62.63 C 244.74,62.864 245.022,62.981 245.353,62.981 Z M 244.286,50.692 L 244.286,57.854 L 243.153,57.854 L 243.153,59.549 L 246.378,59.549 L 246.378,50.692 L 244.286,50.692 Z" marker-start="none" marker-end="none"/>
       <path d="M 247.07,55.141 C 247.07,56.492 247.46,57.592 248.24,58.441 C 249.02,59.29 250.05,59.714 251.329,59.714 C 252.675,59.714 253.719,59.306 254.464,58.49 C 255.208,57.675 255.58,56.558 255.58,55.141 C 255.58,53.729 255.201,52.607 254.443,51.775 C 253.685,50.942 252.647,50.526 251.329,50.526 C 249.984,50.526 248.938,50.947 248.191,51.787 C 247.444,52.628 247.07,53.746 247.07,55.141 Z M 249.22,55.141 C 249.22,53.189 249.923,52.213 251.329,52.213 C 251.974,52.213 252.486,52.467 252.863,52.974 C 253.241,53.481 253.43,54.204 253.43,55.141 C 253.43,57.065 252.73,58.027 251.329,58.027 C 250.684,58.027 250.172,57.774 249.791,57.266 C 249.41,56.759 249.22,56.051 249.22,55.141 Z" marker-start="none" marker-end="none"/>
       <path d="M 265.763,50.692 L 265.763,51.229 C 265.592,51.042 265.303,50.878 264.895,50.737 C 264.487,50.596 264.065,50.526 263.629,50.526 C 262.395,50.526 261.423,50.918 260.714,51.7 C 260.006,52.484 259.651,53.575 259.651,54.976 C 259.651,56.376 260.058,57.516 260.871,58.395 C 261.685,59.275 262.703,59.714 263.927,59.714 C 264.6,59.714 265.212,59.576 265.763,59.301 L 265.763,62.849 L 267.831,63.345 L 267.831,50.692 L 265.763,50.692 Z M 265.763,57.432 C 265.322,57.785 264.862,57.961 264.382,57.961 C 263.555,57.961 262.918,57.709 262.472,57.204 C 262.025,56.7 261.802,55.976 261.802,55.033 C 261.802,53.192 262.689,52.271 264.465,52.271 C 264.663,52.271 264.907,52.33 265.197,52.449 C 265.486,52.567 265.675,52.687 265.763,52.809 L 265.763,57.432 Z" marker-start="none" marker-end="none"/>
       <path d="M 276.669,54.488 L 270.343,54.488 C 270.381,53.782 270.624,53.233 271.07,52.842 C 271.517,52.45 272.118,52.255 272.873,52.255 C 273.816,52.255 274.533,52.5 275.024,52.991 L 275.826,51.411 C 275.098,50.821 274.012,50.526 272.567,50.526 C 271.217,50.526 270.148,50.922 269.363,51.713 C 268.577,52.504 268.184,53.608 268.184,55.025 C 268.184,56.42 268.615,57.55 269.478,58.416 C 270.341,59.281 271.376,59.714 272.584,59.714 C 273.868,59.714 274.9,59.331 275.677,58.565 C 276.455,57.798 276.843,56.823 276.843,55.637 C 276.843,55.384 276.785,55 276.669,54.488 Z M 270.417,56.042 L 274.767,56.042 C 274.624,57.338 273.907,57.986 272.617,57.986 C 271.437,57.986 270.704,57.338 270.417,56.042 Z" marker-start="none" marker-end="none"/>
       <path d="M 287.589,50.692 L 286.704,53.148 L 282.553,53.148 L 281.709,50.692 L 279.319,50.692 L 284.149,62.973 L 285.092,62.973 L 289.963,50.692 L 287.589,50.692 Z M 284.62,59.268 L 283.164,54.794 L 286.076,54.794 L 284.62,59.268 Z" marker-start="none" marker-end="none"/>
       <path d="M 291.887,50.915 L 291.887,47.218 L 289.82,47.218 L 289.82,59.549 L 291.887,59.549 L 291.887,58.954 C 292.405,59.461 293.042,59.714 293.798,59.714 C 296.621,59.714 298.032,58.16 298.032,55.05 C 298.032,53.6 297.642,52.484 296.862,51.7 C 296.082,50.918 295.016,50.526 293.665,50.526 C 293.015,50.526 292.422,50.656 291.887,50.915 Z M 291.887,57.382 L 291.887,52.726 C 292.262,52.423 292.7,52.271 293.202,52.271 C 294.156,52.271 294.841,52.499 295.257,52.953 C 295.674,53.408 295.882,54.127 295.882,55.108 C 295.882,56.156 295.675,56.893 295.262,57.32 C 294.848,57.748 294.164,57.961 293.21,57.961 C 292.714,57.961 292.273,57.768 291.887,57.382 Z" marker-start="none" marker-end="none"/>
       <path d="M 298.137,55.141 C 298.137,56.492 298.527,57.592 299.307,58.441 C 300.087,59.29 301.117,59.714 302.396,59.714 C 303.742,59.714 304.786,59.306 305.531,58.49 C 306.275,57.675 306.647,56.558 306.647,55.141 C 306.647,53.729 306.268,52.607 305.51,51.775 C 304.752,50.942 303.714,50.526 302.396,50.526 C 301.051,50.526 300.005,50.947 299.258,51.787 C 298.511,52.628 298.137,53.746 298.137,55.141 Z M 300.287,55.141 C 300.287,53.189 300.99,52.213 302.396,52.213 C 303.041,52.213 303.553,52.467 303.93,52.974 C 304.308,53.481 304.497,54.204 304.497,55.141 C 304.497,57.065 303.797,58.027 302.396,58.027 C 301.751,58.027 301.239,57.774 300.858,57.266 C 300.477,56.759 300.287,56.051 300.287,55.141 Z" marker-start="none" marker-end="none"/>
       <path d="M 308.786,62.981 C 309.117,62.981 309.399,62.864 309.634,62.63 C 309.868,62.395 309.985,62.113 309.985,61.782 C 309.985,61.451 309.868,61.169 309.634,60.934 C 309.399,60.7 309.117,60.583 308.786,60.583 C 308.455,60.583 308.173,60.7 307.938,60.934 C 307.704,61.169 307.587,61.451 307.587,61.782 C 307.587,62.113 307.704,62.395 307.938,62.63 C 308.173,62.864 308.455,62.981 308.786,62.981 Z M 307.719,50.692 L 307.719,57.854 L 306.586,57.854 L 306.586,59.549 L 309.811,59.549 L 309.811,50.692 L 307.719,50.692 Z" marker-start="none" marker-end="none"/>
       <path d="M 310.503,55.141 C 310.503,56.492 310.893,57.592 311.673,58.441 C 312.453,59.29 313.483,59.714 314.762,59.714 C 316.108,59.714 317.152,59.306 317.897,58.49 C 318.641,57.675 319.013,56.558 319.013,55.141 C 319.013,53.729 318.634,52.607 317.876,51.775 C 317.118,50.942 316.08,50.526 314.762,50.526 C 313.417,50.526 312.371,50.947 311.624,51.787 C 310.877,52.628 310.503,53.746 310.503,55.141 Z M 312.653,55.141 C 312.653,53.189 313.356,52.213 314.762,52.213 C 315.407,52.213 315.919,52.467 316.296,52.974 C 316.674,53.481 316.863,54.204 316.863,55.141 C 316.863,57.065 316.163,58.027 314.762,58.027 C 314.117,58.027 313.605,57.774 313.224,57.266 C 312.843,56.759 312.653,56.051 312.653,55.141 Z" marker-start="none" marker-end="none"/>
       <path d="M 328.427,51.576 C 328.24,51.268 327.913,51.015 327.447,50.82 C 326.981,50.624 326.495,50.526 325.987,50.526 C 325.033,50.526 324.284,50.764 323.738,51.242 C 323.192,51.718 322.919,52.395 322.919,53.272 C 322.919,54.297 323.303,55.1 324.073,55.678 C 324.842,56.257 325.935,56.547 327.352,56.547 C 327.595,56.547 327.881,56.506 328.212,56.423 C 328.212,57.465 327.553,57.986 326.236,57.986 C 325.458,57.986 324.807,57.856 324.284,57.597 L 323.837,59.202 C 324.548,59.544 325.395,59.714 326.376,59.714 C 327.727,59.714 328.717,59.407 329.345,58.792 C 329.974,58.178 330.288,57.013 330.288,55.298 L 330.288,53.404 C 330.288,52.224 330.525,51.483 330.999,51.179 C 330.828,50.882 330.638,50.698 330.429,50.629 C 330.219,50.56 329.979,50.526 329.709,50.526 C 329.411,50.526 329.144,50.636 328.907,50.857 C 328.67,51.077 328.51,51.317 328.427,51.576 Z M 328.229,54.86 C 327.876,54.931 327.611,54.967 327.435,54.967 C 325.803,54.967 324.987,54.432 324.987,53.363 C 324.987,52.569 325.447,52.172 326.368,52.172 C 327.608,52.172 328.229,52.792 328.229,54.033 L 328.229,54.86 Z" marker-start="none" marker-end="none"/>
       <path d="M 330.806,55.141 C 330.806,56.492 331.196,57.592 331.976,58.441 C 332.756,59.29 333.786,59.714 335.065,59.714 C 336.411,59.714 337.455,59.306 338.2,58.49 C 338.944,57.675 339.316,56.558 339.316,55.141 C 339.316,53.729 338.937,52.607 338.179,51.775 C 337.421,50.942 336.383,50.526 335.065,50.526 C 333.72,50.526 332.674,50.947 331.927,51.787 C 331.18,52.628 330.806,53.746 330.806,55.141 Z M 332.956,55.141 C 332.956,53.189 333.659,52.213 335.065,52.213 C 335.71,52.213 336.222,52.467 336.599,52.974 C 336.977,53.481 337.166,54.204 337.166,55.141 C 337.166,57.065 336.466,58.027 335.065,58.027 C 334.42,58.027 333.908,57.774 333.527,57.266 C 333.146,56.759 332.956,56.051 332.956,55.141 Z" marker-start="none" marker-end="none"/>
       <path d="M 351.707,54.488 L 345.381,54.488 C 345.419,53.782 345.662,53.233 346.108,52.842 C 346.555,52.45 347.156,52.255 347.911,52.255 C 348.854,52.255 349.571,52.5 350.062,52.991 L 350.864,51.411 C 350.136,50.821 349.05,50.526 347.605,50.526 C 346.255,50.526 345.186,50.922 344.401,51.713 C 343.615,52.504 343.222,53.608 343.222,55.025 C 343.222,56.42 343.653,57.55 344.516,58.416 C 345.379,59.281 346.414,59.714 347.622,59.714 C 348.906,59.714 349.938,59.331 350.715,58.565 C 351.493,57.798 351.881,56.823 351.881,55.637 C 351.881,55.384 351.823,55 351.707,54.488 Z M 345.455,56.042 L 349.805,56.042 C 349.662,57.338 348.945,57.986 347.655,57.986 C 346.475,57.986 345.742,57.338 345.455,56.042 Z" marker-start="none" marker-end="none"/>
       <path d="M 352.184,54.628 L 352.184,56.572 L 356.559,56.572 L 356.559,54.628 L 352.184,54.628 Z" marker-start="none" marker-end="none"/>
       <path d="M 357.028,51.361 L 357.822,53.288 C 358.671,52.693 359.506,52.395 360.328,52.395 C 361.591,52.395 362.222,52.836 362.222,53.718 C 362.222,54.132 362.073,54.526 361.775,54.901 C 361.478,55.276 360.864,55.696 359.935,56.162 C 359.006,56.628 358.38,57.011 358.058,57.312 C 357.735,57.612 357.487,57.969 357.313,58.383 C 357.14,58.796 357.053,59.254 357.053,59.756 C 357.053,60.693 357.396,61.47 358.083,62.088 C 358.769,62.705 359.65,63.014 360.725,63.014 C 362.126,63.014 363.154,62.752 363.81,62.229 L 363.156,60.376 C 362.401,60.916 361.604,61.186 360.766,61.186 C 360.27,61.186 359.886,61.055 359.613,60.794 C 359.34,60.532 359.203,60.191 359.203,59.772 C 359.203,59.078 359.972,58.355 361.511,57.606 C 362.321,57.208 362.905,56.843 363.264,56.51 C 363.622,56.176 363.895,55.787 364.083,55.343 C 364.27,54.9 364.364,54.405 364.364,53.859 C 364.364,52.878 363.977,52.07 363.202,51.436 C 362.427,50.802 361.389,50.485 360.088,50.485 C 358.958,50.485 357.938,50.777 357.028,51.361 Z" marker-start="none" marker-end="none"/>
       <path d="M 365.13,62.808 L 367.28,62.808 L 367.28,54.595 C 367.28,53.944 367.479,53.415 367.876,53.007 C 368.273,52.599 368.819,52.395 369.513,52.395 C 370.291,52.395 370.896,52.595 371.329,52.995 C 371.761,53.395 371.978,53.942 371.978,54.637 L 371.978,62.808 L 374.128,62.808 L 374.128,54.471 C 374.128,53.225 373.71,52.249 372.875,51.543 C 372.04,50.838 370.925,50.485 369.53,50.485 C 368.124,50.485 367.039,50.829 366.276,51.519 C 365.512,52.208 365.13,53.195 365.13,54.479 L 365.13,62.808 Z" marker-start="none" marker-end="none"/>
       <path d="M 374.894,51.361 L 375.688,53.288 C 376.537,52.693 377.372,52.395 378.194,52.395 C 379.457,52.395 380.088,52.836 380.088,53.718 C 380.088,54.132 379.939,54.526 379.641,54.901 C 379.344,55.276 378.73,55.696 377.801,56.162 C 376.872,56.628 376.246,57.011 375.924,57.312 C 375.601,57.612 375.353,57.969 375.179,58.383 C 375.006,58.796 374.919,59.254 374.919,59.756 C 374.919,60.693 375.262,61.47 375.949,62.088 C 376.635,62.705 377.516,63.014 378.591,63.014 C 379.992,63.014 381.02,62.752 381.676,62.229 L 381.022,60.376 C 380.267,60.916 379.47,61.186 378.632,61.186 C 378.136,61.186 377.752,61.055 377.479,60.794 C 377.206,60.532 377.069,60.191 377.069,59.772 C 377.069,59.078 377.838,58.355 379.377,57.606 C 380.187,57.208 380.771,56.843 381.13,56.51 C 381.488,56.176 381.761,55.787 381.949,55.343 C 382.136,54.9 382.23,54.405 382.23,53.859 C 382.23,52.878 381.843,52.07 381.068,51.436 C 380.293,50.802 379.255,50.485 377.954,50.485 C 376.824,50.485 375.804,50.777 374.894,51.361 Z" marker-start="none" marker-end="none"/>
      </g>
     </g>
    </g>
   </g>
  </g>
 </g>
</svg>
